<svg width="78" height="79" viewBox="0 0 78 79" fill="none" xmlns="http://www.w3.org/2000/svg">
<g clip-path="url(#clip0_2_513)">
<path d="M55.3549 73.0578H74.7127L69.7433 58.1485C68.4438 54.2498 65.1275 51.3587 61.0878 50.6014L47.8065 48.1104V45.037C50.9881 42.741 53.2338 39.2436 53.8854 35.2102C56.8545 34.7082 59.129 32.1355 59.129 29.0256V20.2191C59.129 9.12048 50.0987 0.0900879 39 0.0900879C27.9014 0.0900879 18.871 9.12048 18.871 20.2191V29.0256C18.871 32.1317 21.1342 34.7196 24.0982 35.2266C24.7524 39.2599 27.0107 42.7611 30.1936 45.0558V48.1117L16.9109 50.6026C12.8725 51.36 9.555 54.251 8.25542 58.1498L3.28732 73.0578H22.6452V70.5417H19.2245L21.3494 62.0397L18.9087 61.4308L16.6304 70.5417H6.77719L10.6432 58.9449C11.6535 55.9129 14.2337 53.6635 17.3751 53.0735L25.389 51.5713L27.4384 60.7904C26.0998 61.3717 25.1613 62.7027 25.1613 64.2514V74.3159C25.1613 76.3967 26.8547 78.0901 28.9355 78.0901H49.0645C51.1454 78.0901 52.8387 76.3967 52.8387 74.3159V64.2514C52.8387 62.7027 51.9002 61.3717 50.5629 60.7904L52.6123 51.5713L60.6261 53.0735C63.7675 53.6635 66.3466 55.9129 67.358 58.9449L71.2228 70.5417H61.3697L59.0913 61.4308L56.6507 62.0397L58.7755 70.5417H55.3549V73.0578ZM50.1377 51.1071L48.4003 58.9247L47.5309 55.4449H42.037L46.9686 50.5133L50.1377 51.1071ZM46.1949 60.4772H31.8051L32.4342 57.9611H45.5658L46.1949 60.4772ZM39 54.9241L32.7097 48.6338V46.5127C34.627 47.3958 36.7544 47.8965 39 47.8965C41.2469 47.8965 43.373 47.3895 45.2903 46.5064V48.6338L39 54.9241ZM54.0968 32.5683V25.4841C55.5574 26.005 56.6129 27.3888 56.6129 29.0268C56.6129 30.6648 55.5574 32.0474 54.0968 32.5683ZM23.9032 32.5846C22.4388 32.0651 21.3871 30.6661 21.3871 29.0256C21.3871 27.3851 22.4388 25.9861 23.9032 25.4665V32.5846ZM21.3871 24.026V20.2191C21.3871 10.5069 29.2877 2.60622 39 2.60622C48.7123 2.60622 56.6129 10.5069 56.6129 20.2191V24.026C55.8681 23.4624 55.0076 23.046 54.0565 22.8585C53.859 21.3728 52.5984 20.2191 51.0598 20.2191C50.2609 20.2191 49.4784 20.5437 48.8494 21.1727C46.7245 23.2976 44.0323 24.6525 41.1161 25.0929L41.1966 24.9318C41.4054 24.5116 41.5161 24.0424 41.5161 23.5731V23.2561C41.5161 21.5816 40.1537 20.2191 38.4792 20.2191C37.6803 20.2191 36.8978 20.5437 36.3316 21.1086C33.6809 23.7581 30.1646 25.2275 26.4194 25.2514V22.7352H25.1613C23.7397 22.7352 22.4414 23.2272 21.3871 24.026ZM26.4194 32.7998V27.7675C30.8364 27.7436 34.9855 26.0125 38.1093 22.8887C38.4125 22.5843 39 22.8321 39 23.2561V23.5731C39 23.6536 38.9811 23.7342 38.9446 23.8071L36.9645 27.7675H39C43.3932 27.7675 47.5221 26.0578 50.6899 22.8887C50.9944 22.5843 51.5807 22.8321 51.5807 23.2561V32.7998C51.5807 39.7367 45.937 45.3804 39 45.3804C32.063 45.3804 26.4194 39.7367 26.4194 32.7998ZM31.0314 50.5133L35.963 55.4449H30.4691L29.5997 58.9247L27.8624 51.1071L31.0314 50.5133ZM28.9355 75.574C28.2423 75.574 27.6774 75.0103 27.6774 74.3159V64.2514C27.6774 63.5569 28.2423 62.9933 28.9355 62.9933H32.8493C31.2126 64.5936 30.1936 66.8203 30.1936 69.2836C30.1936 71.7469 31.2126 73.9737 32.8493 75.574H28.9355ZM39 75.574C35.5315 75.574 32.7097 72.7521 32.7097 69.2836C32.7097 65.8152 35.5315 62.9933 39 62.9933C42.4685 62.9933 45.2903 65.8152 45.2903 69.2836C45.2903 72.7521 42.4685 75.574 39 75.574ZM50.3226 74.3159C50.3226 75.0103 49.7577 75.574 49.0645 75.574H45.1507C46.7874 73.9737 47.8065 71.7469 47.8065 69.2836C47.8065 66.8203 46.7874 64.5936 45.1507 62.9933H49.0645C49.7577 62.9933 50.3226 63.5569 50.3226 64.2514V74.3159Z" fill="#FFB400"/>
<path d="M39 65.5095C36.9192 65.5095 35.2258 67.2029 35.2258 69.2837C35.2258 71.3646 36.9192 73.0579 39 73.0579C41.0808 73.0579 42.7742 71.3646 42.7742 69.2837C42.7742 67.2029 41.0808 65.5095 39 65.5095ZM39 70.5418C38.3068 70.5418 37.7419 69.9782 37.7419 69.2837C37.7419 68.5893 38.3068 68.0257 39 68.0257C39.6932 68.0257 40.2581 68.5893 40.2581 69.2837C40.2581 69.9782 39.6932 70.5418 39 70.5418Z" fill="#FFB400"/>
</g>
<defs>
<clipPath id="clip0_2_513">
<rect width="78" height="78" fill="white" transform="translate(0 0.0900879)"/>
</clipPath>
</defs>
</svg>
